<?xml version="1.0" encoding="utf-8"?>
<!DOCTYPE svg PUBLIC "-//W3C//DTD SVG 20010904//EN" "http://www.w3.org/TR/2001/REC-SVG-20010904/DTD/svg10.dtd">
<svg version="1.0" xmlns="http://www.w3.org/2000/svg" width="31pt" height="50pt" viewBox="0 0 31 50" style="" preserveAspectRatio="xMidYMid meet">
<g fill="#C70101FF" stroke="#C70101FF">
<path d="M 11.734 11.765 C 5.280 18.236 0.000 24.205 0.000 25.031 C 0.000 27.393 23.187 50.000 25.610 50.000 C 28.133 50.000 31.000 47.043 31.000 44.441 C 31.000 43.387 27.108 38.629 22.271 33.770 L 13.542 25.000 22.271 16.230 C 27.622 10.855 31.000 6.657 31.000 5.385 C 31.000 2.852 28.037 0.000 25.406 0.000 C 24.264 0.000 18.648 4.833 11.734 11.765 "/></g>
<g fill="#FF000001" stroke="#FF000001">
<path d="M 2.000 20.888 L 0.500 22.563 2.000 20.888 L 3.500 19.212 2.000 20.888 "/></g>
<g fill="#FF000001" stroke="#FF000001">
<path d="M 1.500 28.500 L 3.000 30.000 1.500 28.500 L 0.000 27.000 1.500 28.500 "/></g>
</svg>
