<?xml version="1.0" encoding="utf-8"?>
<!DOCTYPE svg PUBLIC "-//W3C//DTD SVG 20010904//EN" "http://www.w3.org/TR/2001/REC-SVG-20010904/DTD/svg10.dtd">
<svg version="1.0" xmlns="http://www.w3.org/2000/svg" width="30pt" height="50pt" viewBox="0 0 30 50" style="" preserveAspectRatio="xMidYMid meet">
<g fill="#C70101FF" stroke="#C70101FF">
<path d="M 1.655 1.829 C 0.745 2.835 0.000 4.513 0.000 5.559 C 0.000 6.613 3.892 11.371 8.729 16.230 L 17.458 25.000 8.729 33.770 C 3.378 39.145 0.000 43.343 0.000 44.615 C 0.000 47.186 2.976 50.000 5.694 50.000 C 8.388 50.000 30.000 27.770 30.000 25.000 C 30.000 23.792 25.549 18.393 18.866 11.494 C 7.269 -0.477 4.930 -1.790 1.655 1.829 "/></g>
<g fill="#AA000003" stroke="#AA000003">
<path d="M 28.378 28.378 L 27.500 29.256 28.378 28.378 L 29.256 27.500 28.378 28.378 "/></g>
<g fill="#AA000003" stroke="#AA000003">
<path d="M 28.500 21.500 L 30.000 23.000 28.500 21.500 L 27.000 20.000 28.500 21.500 "/></g>
</svg>
